# xmcd CD database file
#
# Track frame offsets:
#	150
#	13420
#	24394
#	37384
#	52024
#	63594
#	78234
#	90447
#	102109
#	112828
#	124383
#	137388
#	151317
#	163984
#	176538
#	189666
#	202099
#	215469
#	227909
#	239991
#
# Disc length: 3360 seconds
#
# Revision: 0
# Processed by: cddbd v1.5.2PL0 Copyright (c) Steve Scherf et al.
# Submitted via: CDex 1.70beta2
#
DISCID=220d1e14
DTITLE=Reinhardt, Django - The Absolutely Essential Collection CD 1
DYEAR=2010
DGENRE=Jazz
TTITLE0=Djangology
TTITLE1=Naguine
TTITLE2=Blue Drag
TTITLE3=Georgia on My Mind
TTITLE4=Stompin' at Decca
TTITLE5=Minor Swing
TTITLE6=Night and Day
TTITLE7=Dinah
TTITLE8=Finesse (Night Wind)
TTITLE9=Tiger Rag
TTITLE10=Oh, Lady Be Good
TTITLE11=You Rascal You
TTITLE12=Lambeth Walk
TTITLE13=Hungaria
TTITLE14=Billets Doux
TTITLE15=Honeysuckle Rose
TTITLE16=I Got Rhythm
TTITLE17=Minor Blues
TTITLE18=Improvisation, No. 2
TTITLE19=St. Louis Blues
EXTD=YEAR: 2010
EXTT0=
EXTT1=
EXTT2=
EXTT3=
EXTT4=
EXTT5=
EXTT6=
EXTT7=
EXTT8=
EXTT9=
EXTT10=
EXTT11=
EXTT12=
EXTT13=
EXTT14=
EXTT15=
EXTT16=
EXTT17=
EXTT18=
EXTT19=
PLAYORDER=
